<svg id="Camada_1" data-name="Camada 1" xmlns="http://www.w3.org/2000/svg" viewBox="0 0 50 50"><defs><style>.cls-1{fill:#00aaca;}</style></defs><title>email</title><path class="cls-1" d="M25,0A25,25,0,1,0,50,25,25,25,0,0,0,25,0ZM40.41,24A17,17,0,0,1,39,30a18.84,18.84,0,0,1-2.89,4.7,14.25,14.25,0,0,1-3.62,3.12A7.1,7.1,0,0,1,29,38.91a3.74,3.74,0,0,1-2.34-.62,3,3,0,0,1-1-1.52,4.18,4.18,0,0,1-.11-1.83,8.59,8.59,0,0,1,.36-1.59,3.39,3.39,0,0,0,.19-.45c.06-.19.13-.4.23-.65A14.26,14.26,0,0,1,24,33.79,6.18,6.18,0,0,1,21,34.5,4.44,4.44,0,0,1,17.34,33a5.67,5.67,0,0,1-1.06-4.13,10.66,10.66,0,0,1,.67-3,15.88,15.88,0,0,1,1.51-3.07,20.67,20.67,0,0,1,2.16-2.84,19,19,0,0,1,2.52-2.36A12.67,12.67,0,0,1,25.8,16a6.29,6.29,0,0,1,2.54-.6,2.83,2.83,0,0,1,1.47.33,2.34,2.34,0,0,1,.87.84,3,3,0,0,1,.42,1.13,7.7,7.7,0,0,1,.09,1.14l.09-.27a6.29,6.29,0,0,1,.94-2c.29-.32.68-.14,1.17.53a4.43,4.43,0,0,1,.46.78,3.83,3.83,0,0,1,.27.73,1,1,0,0,1,0,.6Q32.89,22,32,24.23L30.45,28c-.49,1.22-.9,2.28-1.23,3.16a10.56,10.56,0,0,0-.81,2.69,3.69,3.69,0,0,0,.09,1.56,1,1,0,0,0,.67.64,2,2,0,0,0,1,0,6.36,6.36,0,0,0,2.23-1.43,13.71,13.71,0,0,0,2.27-2.73,19.33,19.33,0,0,0,1.83-3.67A14.23,14.23,0,0,0,37.38,24a17.08,17.08,0,0,0-.23-4.52,11.41,11.41,0,0,0-1.51-4,8.63,8.63,0,0,0-2.92-2.84,8.47,8.47,0,0,0-4.42-1.08A12.38,12.38,0,0,0,23,12.78a17.2,17.2,0,0,0-4.91,3.51,19.42,19.42,0,0,0-3.69,5.32,17.29,17.29,0,0,0-1.65,6.65A10.35,10.35,0,0,0,15,34.84a9.08,9.08,0,0,0,1.84,1.75A11.81,11.81,0,0,0,19.51,38a15.47,15.47,0,0,0,3.56.87,2.79,2.79,0,0,1-.76,1.28,1.82,1.82,0,0,1-1.76.19L19,40a13.89,13.89,0,0,1-2.31-.8,14.6,14.6,0,0,1-2.62-1.51,10.36,10.36,0,0,1-2.41-2.48A12.47,12.47,0,0,1,10,31.57a14.27,14.27,0,0,1-.39-5.05A15,15,0,0,1,10.39,23a19.53,19.53,0,0,1,1.72-3.79,21,21,0,0,1,2.68-3.64,18.21,18.21,0,0,1,3.65-3.08A19.48,19.48,0,0,1,23,10.35a17.88,17.88,0,0,1,5.44-.8A11,11,0,0,1,34,10.88a11.92,11.92,0,0,1,3.83,3.42A13.47,13.47,0,0,1,39.93,19,17.69,17.69,0,0,1,40.41,24Z"/><path class="cls-1" d="M28.18,22.71a1.9,1.9,0,0,1-1.72-.18,8.16,8.16,0,0,0,1-1.35A9.15,9.15,0,0,0,28,20.05a5.35,5.35,0,0,0,.23-1,1.11,1.11,0,0,0-.14-.89.66.66,0,0,0-.51-.25,4.05,4.05,0,0,0-2,.85A12.17,12.17,0,0,0,23,21.06a17.54,17.54,0,0,0-2.27,3.44,10.62,10.62,0,0,0-1.15,4.22,3.91,3.91,0,0,0,.19,1.58,2.2,2.2,0,0,0,.59.94,2,2,0,0,0,.78.44,2.85,2.85,0,0,0,.78.12c1.59,0,3.11-.85,4.54-2.55a17.26,17.26,0,0,0,3.26-7.41A5.43,5.43,0,0,1,28.18,22.71Z"/></svg>