<svg id="Camada_1" data-name="Camada 1" xmlns="http://www.w3.org/2000/svg" xmlns:xlink="http://www.w3.org/1999/xlink" viewBox="0 0 50 50"><defs><style>.cls-1{fill:url(#Gradiente_sem_nome_39);}.cls-2{fill:#fff;}</style><linearGradient id="Gradiente_sem_nome_39" x1="12.5" y1="46.65" x2="37.5" y2="3.35" gradientUnits="userSpaceOnUse"><stop offset="0" stop-color="#597ecc"/><stop offset="0.03" stop-color="#4468be"/><stop offset="0.08" stop-color="#2d51af"/><stop offset="0.14" stop-color="#1c40a4"/><stop offset="0.2" stop-color="#10339c"/><stop offset="0.29" stop-color="#092c97"/><stop offset="0.5" stop-color="#072a96"/><stop offset="0.71" stop-color="#092c97"/><stop offset="0.8" stop-color="#10339c"/><stop offset="0.86" stop-color="#1c40a4"/><stop offset="0.92" stop-color="#2d51af"/><stop offset="0.97" stop-color="#4468be"/><stop offset="1" stop-color="#597ecc"/></linearGradient></defs><title>email</title><circle class="cls-1" cx="25" cy="25" r="25"/><path class="cls-2" d="M35.83,15.9A9.52,9.52,0,0,0,32.6,13a9.14,9.14,0,0,0-4.76-1.11,16.88,16.88,0,0,0-4.59.68,18.06,18.06,0,0,0-3.91,1.79A18.25,18.25,0,0,0,16.19,17a21,21,0,0,0-2.29,3.06,15.53,15.53,0,0,0-1.45,3.23,12.08,12.08,0,0,0-.34,7.23,10,10,0,0,0,1.45,3.06,9.63,9.63,0,0,0,2,2.13A11.3,11.3,0,0,0,17.81,37a12.54,12.54,0,0,0,2,.68l1.27.26a1.65,1.65,0,0,0,1.53-.17,2.46,2.46,0,0,0,.68-1.11,10.1,10.1,0,0,1-3.06-.76,15.29,15.29,0,0,1-2.3-1.19,6.94,6.94,0,0,1-1.53-1.53,9.07,9.07,0,0,1-1.95-5.62,14.72,14.72,0,0,1,1.44-5.69A15.44,15.44,0,0,1,19,17.34a14.38,14.38,0,0,1,4.17-3,10.52,10.52,0,0,1,4.5-1,7.17,7.17,0,0,1,3.74.93,7.51,7.51,0,0,1,2.47,2.38,8.27,8.27,0,0,1,1.27,3.4,11.49,11.49,0,0,1,.17,3.83,12.78,12.78,0,0,1-.76,3.57A22.77,22.77,0,0,1,33,30.6a9.93,9.93,0,0,1-2,2.3,5.33,5.33,0,0,1-1.87,1.19,1.37,1.37,0,0,1-.85,0,.87.87,0,0,1-.59-.51,3.55,3.55,0,0,1-.09-1.36,8,8,0,0,1,.68-2.3c.26-.76.6-1.61,1-2.72L30.65,24c.51-1.27,1.1-2.72,1.78-4.25a.52.52,0,0,0,0-.51,4.36,4.36,0,0,0-.25-.59,3,3,0,0,0-.43-.68c-.42-.6-.76-.68-1-.43a6.19,6.19,0,0,0-.76,1.7l-.09.26a3.43,3.43,0,0,0-.08-.94,3.1,3.1,0,0,0-.34-.93,1.51,1.51,0,0,0-.77-.68,2.33,2.33,0,0,0-1.27-.26,4.61,4.61,0,0,0-2.13.51A16.19,16.19,0,0,0,23,18.53a12.48,12.48,0,0,0-2.13,2A27.21,27.21,0,0,0,19,23a15,15,0,0,0-1.28,2.64,9.06,9.06,0,0,0-.59,2.55,4.71,4.71,0,0,0,.93,3.49,3.93,3.93,0,0,0,3.15,1.27,5.4,5.4,0,0,0,2.55-.59,16.52,16.52,0,0,0,2-1.28,1.91,1.91,0,0,0-.17.6c-.09.17-.09.25-.17.34A6,6,0,0,0,25,33.33a3.06,3.06,0,0,0,.08,1.53A2.63,2.63,0,0,0,26,36.13a2.71,2.71,0,0,0,2,.51,6.38,6.38,0,0,0,3-.93A11.44,11.44,0,0,0,34,33.07,15.41,15.41,0,0,0,37.62,24a14.36,14.36,0,0,0-.43-4.25A6.17,6.17,0,0,0,35.83,15.9Zm-9.6,12.75a5.1,5.1,0,0,1-3.83,2.12,2,2,0,0,1-.68-.08,1.81,1.81,0,0,1-.68-.34,2.15,2.15,0,0,1-.51-.77,3.51,3.51,0,0,1-.17-1.36,10.25,10.25,0,0,1,.94-3.57,13.46,13.46,0,0,1,1.95-2.89,8.27,8.27,0,0,1,2.21-2,3.45,3.45,0,0,1,1.7-.77.49.49,0,0,1,.43.26.8.8,0,0,1,.08.76,2.79,2.79,0,0,1-.17.85c-.17.34-.25.68-.42.94a5.76,5.76,0,0,1-.85,1.1,1.72,1.72,0,0,0,1.44.17A3.21,3.21,0,0,0,29,22.36,16,16,0,0,1,26.23,28.65Z"/></svg>