<svg id="Camada_1" data-name="Camada 1" xmlns="http://www.w3.org/2000/svg" xmlns:xlink="http://www.w3.org/1999/xlink" viewBox="0 0 50 50"><defs><style>.cls-1{fill:url(#Gradiente_sem_nome_52);}.cls-2{fill:#fff;}</style><linearGradient id="Gradiente_sem_nome_52" x1="12.5" y1="46.65" x2="37.5" y2="3.35" gradientUnits="userSpaceOnUse"><stop offset="0" stop-color="#ff90ae"/><stop offset="0.03" stop-color="#f88196"/><stop offset="0.07" stop-color="#f06f7a"/><stop offset="0.11" stop-color="#e96063"/><stop offset="0.16" stop-color="#e35452"/><stop offset="0.22" stop-color="#e04c45"/><stop offset="0.31" stop-color="#de473e"/><stop offset="0.5" stop-color="#dd463c"/><stop offset="0.69" stop-color="#de473e"/><stop offset="0.78" stop-color="#e04c45"/><stop offset="0.84" stop-color="#e35452"/><stop offset="0.89" stop-color="#e96063"/><stop offset="0.93" stop-color="#f06f7a"/><stop offset="0.97" stop-color="#f88196"/><stop offset="1" stop-color="#ff90ae"/></linearGradient></defs><title>tel</title><circle class="cls-1" cx="25" cy="25" r="25"/><path class="cls-2" d="M30.91,28a5.23,5.23,0,0,0-3.48,4.47A16.25,16.25,0,0,1,17.32,22.33a5.23,5.23,0,0,0,4.49-3.57,24.76,24.76,0,0,1-2.5-6.26,5.34,5.34,0,0,0-2.95-.6,5.24,5.24,0,0,0-4.75,5.2,21.06,21.06,0,0,0,21,21.07h0a5.22,5.22,0,0,0,4.7-7.51A24.33,24.33,0,0,1,30.91,28Z"/></svg>