<?xml version="1.0" encoding="UTF-8"?>
<svg enable-background="new 0 0 94.8 95.2" version="1.1" viewBox="0 0 94.8 95.2" xml:space="preserve" xmlns="http://www.w3.org/2000/svg">
<style type="text/css">
	.st0{fill:#FFFFFF;}
	.st1{fill:url(#b);}
	.st2{fill:url(#a);}
	.st3{fill:url(#SVGID_3_);}
	.st4{fill:url(#SVGID_4_);}
</style>
		<path class="st0" d="m26.2 80.1l1.4 0.8c6 3.6 12.9 5.5 20 5.5 21.6 0 39.2-17.5 39.2-39.2s-17.6-39.2-39.2-39.2-39.2 17.5-39.2 39.2c0 7.4 2.1 14.6 6 20.8l0.9 1.5-4 14.5 14.9-3.9zm-26.2 15.1l6.7-24.4c-13-22.7-5.2-51.5 17.3-64.5 18.5-10.6 41.8-7.6 56.9 7.5 18.4 18.4 18.4 48.3 0 66.7-8.8 8.8-20.8 13.8-33.3 13.8-7.9 0-15.6-2-22.6-5.7l-25 6.6z"/>
			<linearGradient id="b" x1="-589.82" x2="-587.61" y1="-989.56" y2="-989.56" gradientTransform="matrix(0 -41.64 41.64 0 41253 -24466)" gradientUnits="userSpaceOnUse">
			<stop stop-color="#20B038" offset="0"/>
			<stop stop-color="#60D66A" offset="1"/>
		</linearGradient>
		<path class="st1" d="m2 47.2c0 8 2.1 15.8 6.1 22.8l-6.5 23.5 24.1-6.3c6.7 3.6 14.2 5.5 21.8 5.5 25.2 0 45.5-20.4 45.5-45.5 0.1-25.2-20.3-45.5-45.5-45.5-25.1 0-45.5 20.3-45.5 45.5m45.6 45.5"/>
			<linearGradient id="a" x1="-589.12" x2="-586.91" y1="-990.15" y2="-990.15" gradientTransform="matrix(0 -43.13 43.13 0 42752 -25312)" gradientUnits="userSpaceOnUse">
			<stop stop-color="#F9F9F9" offset="0"/>
			<stop stop-color="#fff" offset="1"/>
		</linearGradient>
		<path class="st2" d="m0.4 47.2c0 8.3 2.2 16.4 6.3 23.6l-6.7 24.4 25-6.6c6.9 3.8 14.7 5.7 22.5 5.7 26.1 0 47.2-21.1 47.2-47.1s-21-47.2-47.1-47.2-47.2 21.1-47.2 47.2v0m14.9 22.3l-0.9-1.5c-11.5-18.4-6-42.6 12.4-54.1s42.6-6 54.1 12.4 6 42.6-12.4 54.1c-6.2 3.9-13.5 6-20.8 6-7 0-13.9-1.9-20-5.5l-1.4-0.8-15 3.9 4-14.5zm32.3 24.9"/>
		<path class="st0" d="m35.8 27.4c-0.9-2-1.8-2-2.7-2s-1.5 0-2.3 0c-1.2 0-2.3 0.6-3.1 1.5-2.7 2.6-4.2 6.1-4.1 9.8 0 5.8 4.2 11.4 4.8 12.2s8.2 13.1 20.1 17.8c10 3.9 12 3.2 14.1 3s7-2.8 8-5.6 1-5.1 0.7-5.6-1.1-0.8-2.3-1.4-7-3.5-8.1-3.9-1.9-0.6-2.7 0.6-3 3.8-3.7 4.6-1.4 0.9-2.6 0.3c-3.5-1.4-6.7-3.4-9.5-5.8-2.6-2.4-4.8-5.1-6.5-8.2-0.7-1.2-0.1-1.8 0.5-2.4s1.2-1.4 1.8-2.1c0.5-0.6 0.9-1.3 1.2-2s0.3-1.4-0.1-2.1c-0.2-0.5-2.5-6.4-3.5-8.7"/>
</svg>
